<?xml version="1.0" encoding="utf-8" ?>
<svg xmlns="http://www.w3.org/2000/svg" xmlns:xlink="http://www.w3.org/1999/xlink" width="900" height="900">
	<path fill="#FBFCF0" d="M435.038 0L469.648 0C469.824 0.109792 469.995 0.225759 470.175 0.329377C471.204 0.924784 515.185 5.09485 520.922 5.91885C536.479 8.15314 552.016 11.7529 567.212 15.7383Q573.971 17.5299 580.672 19.5311Q587.372 21.5323 594.007 23.7412Q600.642 25.9501 607.205 28.3645Q613.768 30.779 620.253 33.3967Q626.737 36.0143 633.137 38.8327Q639.537 41.651 645.846 44.6673Q652.155 47.6836 658.367 50.8948Q664.579 54.1061 670.688 57.5093Q676.797 60.9125 682.797 64.5042Q688.797 68.096 694.682 71.8729Q700.567 75.6498 706.332 79.6081Q712.097 83.5665 717.736 87.7024Q723.374 91.8383 728.882 96.1479Q734.389 100.457 739.759 104.936Q745.129 109.415 750.358 114.059Q755.586 118.703 760.667 123.508Q765.748 128.312 770.677 133.273Q775.606 138.233 780.378 143.345Q785.15 148.457 789.761 153.714Q794.371 158.972 798.816 164.371Q803.261 169.77 807.535 175.304Q811.809 180.839 815.909 186.504Q820.009 192.169 823.931 197.958Q827.852 203.748 831.592 209.658Q835.331 215.567 838.884 221.59Q842.438 227.612 845.802 233.743Q849.166 239.873 852.338 246.106Q855.509 252.338 858.486 258.666Q861.461 264.994 864.239 271.412Q867.016 277.83 869.593 284.331Q872.169 290.832 874.542 297.41Q876.914 303.988 879.081 310.637Q884.86 328.421 889.16 346.619Q893.459 364.817 896.251 383.307Q897.666 392.906 898.549 402.569C898.926 406.504 899.011 410.679 900 414.513L900 484.978C898.657 489.658 898.752 495.228 898.305 500.098Q897.6 507.258 896.532 514.373Q894.441 529.03 891.344 543.509Q888.248 557.987 884.162 572.218Q882.918 576.589 881.585 580.935Q880.253 585.28 878.832 589.597Q877.412 593.915 875.904 598.202Q874.397 602.49 872.802 606.746Q871.208 611.002 869.528 615.225Q867.848 619.448 866.082 623.636Q864.316 627.824 862.466 631.976Q860.616 636.127 858.682 640.24Q856.748 644.353 854.731 648.426Q852.714 652.499 850.615 656.53Q848.516 660.561 846.336 664.549Q844.155 668.537 841.894 672.479Q839.633 676.422 837.293 680.318Q834.952 684.214 832.533 688.062Q830.115 691.91 827.618 695.708Q825.122 699.506 822.549 703.252Q819.976 706.999 817.327 710.692Q814.679 714.386 811.956 718.025Q809.233 721.664 806.437 725.247Q803.641 728.831 800.773 732.356Q797.905 735.882 794.966 739.349Q792.027 742.816 789.018 746.222Q786.009 749.629 782.932 752.974Q779.855 756.318 776.711 759.6Q773.566 762.882 770.356 766.099Q767.146 769.316 763.871 772.468Q760.596 775.619 757.258 778.704Q753.92 781.788 750.52 784.804Q747.12 787.82 743.659 790.767Q740.199 793.713 736.679 796.589Q733.159 799.465 729.582 802.269Q726.005 805.072 722.372 807.803C707.617 818.946 692.164 829.637 675.997 838.642C617.902 871 561.824 889.081 495.644 896.053C487.825 896.877 479.929 897.985 472.092 898.54C459.957 899.401 447.321 899.216 435.16 898.695C428.396 898.406 421.535 897.279 414.785 896.593C385.444 893.614 357.023 888.864 328.613 880.734Q323.287 879.201 318 877.538Q312.713 875.875 307.468 874.081Q302.224 872.288 297.025 870.366Q291.827 868.444 286.677 866.394Q281.528 864.344 276.43 862.168Q271.333 859.992 266.29 857.691Q261.248 855.39 256.264 852.965Q251.28 850.54 246.357 847.994Q241.435 845.447 236.576 842.779Q231.718 840.112 226.927 837.325Q222.136 834.539 217.415 831.635Q212.694 828.731 208.046 825.712Q203.398 822.692 198.826 819.559Q194.254 816.426 189.76 813.182Q185.267 809.937 180.855 806.582Q176.443 803.228 172.115 799.765Q167.787 796.303 163.545 792.735Q159.304 789.167 155.152 785.495Q151 781.824 146.94 778.051Q142.88 774.278 138.914 770.406Q134.948 766.534 131.078 762.566Q127.209 758.598 123.439 754.535Q119.669 750.473 116 746.318Q112.331 742.164 108.765 737.92Q105.2 733.677 101.74 729.347Q98.2806 725.016 94.9288 720.602Q91.5769 716.188 88.335 711.693Q85.093 707.197 81.9629 702.623Q78.8327 698.049 75.8163 693.399Q72.7999 688.749 69.8991 684.027Q66.9983 679.304 64.2148 674.511Q61.4313 669.718 58.7669 664.858C28.0317 609.466 10.9591 548.459 5.23688 485.56C4.65892 479.207 3.7086 472.858 3.30542 466.495C2.66364 456.366 2.83973 445.962 3.15972 435.817C3.36735 429.234 4.37758 422.708 4.96452 416.152C7.73354 385.222 12.7347 355.04 21.3276 325.163Q23.3401 318.164 25.579 311.234Q27.818 304.304 30.281 297.451Q32.7441 290.597 35.4286 283.828Q38.1131 277.058 41.0163 270.379Q43.9194 263.7 47.0382 257.119Q50.1569 250.538 53.488 244.062Q56.819 237.586 60.3588 231.221Q63.8986 224.857 67.6434 218.611Q71.3882 212.365 75.3341 206.244Q79.2799 200.123 83.4227 194.133Q87.5654 188.144 91.9007 182.292Q96.236 176.44 100.759 170.733Q105.282 165.025 109.989 159.468Q114.695 153.91 119.58 148.508Q124.464 143.107 129.522 137.867Q134.579 132.627 139.804 127.554Q145.03 122.481 150.417 117.581Q155.804 112.68 161.348 107.958Q166.892 103.235 172.586 98.6953Q178.281 94.1554 184.12 89.8031Q189.958 85.4507 195.936 81.2904Q201.913 77.1302 208.023 73.1664Q214.132 69.2027 220.367 65.4396Q226.602 61.6765 232.956 58.1181Q239.31 54.5598 245.777 51.2098Q252.243 47.8598 258.815 44.7219Q265.387 41.5839 272.057 38.6612Q278.727 35.7385 285.489 33.0342Q292.251 30.3299 299.097 27.8468Q305.944 25.3637 312.867 23.1045Q319.79 20.8453 326.783 18.8123Q333.776 16.7794 340.832 14.9748C354.724 11.4127 369.023 8.18143 383.223 6.06684C388.807 5.23528 433.424 1.03658 434.568 0.319149C434.729 0.218587 434.881 0.106383 435.038 0Z"/>
	<defs>
		<linearGradient id="gradient_0" gradientUnits="userSpaceOnUse" x1="602.34875" y1="114.795" x2="421.89182" y2="849.17413">
			<stop offset="0" stop-color="#18666E"/>
			<stop offset="1" stop-color="#29828A"/>
		</linearGradient>
	</defs>
	<path fill="url(#gradient_0)" d="M329.03 158.722C330.433 148.681 341.771 117.828 347.08 109.181C351.133 102.581 356.531 96.4374 362.697 91.7418C385.455 74.41 415.75 71.9538 443.262 75.7201C466.478 78.8984 488.332 89.3786 502.592 108.382Q503.797 110.02 504.921 111.715Q506.045 113.409 507.086 115.156Q508.127 116.903 509.082 118.698Q510.038 120.494 510.905 122.333Q511.772 124.172 512.549 126.052Q513.327 127.931 514.012 129.845Q514.698 131.76 515.29 133.705Q515.882 135.651 516.379 137.622Q516.876 139.594 517.277 141.588Q517.679 143.581 517.983 145.592Q518.287 147.603 518.494 149.626Q518.701 151.649 518.81 153.679Q518.918 155.71 518.928 157.744Q518.939 159.777 518.851 161.809Q518.763 163.84 518.576 165.865Q518.39 167.89 518.106 169.904C516.448 181.386 511.876 193.602 506.288 203.777C503.468 208.912 500.044 213.795 497.956 219.296C495.675 225.307 494.896 232.008 493.799 238.321C503.232 236.856 527.051 235.179 535.054 241.199C536.031 241.934 536.696 242.839 536.872 244.074C537.157 246.067 536.077 248.461 535.457 250.34C535.539 250.452 535.618 250.565 535.702 250.675C538.877 254.837 545.986 257.912 545.236 263.996C544.88 266.886 543.119 269.148 541.532 271.489C541.642 271.605 541.75 271.723 541.863 271.837C545.862 275.881 551.694 278.947 556.341 282.319C567.332 290.294 578.134 298.643 589.587 305.945C608.572 318.048 620.073 319.901 635.391 338.728C643.695 348.935 649.803 360.929 655.072 372.933C678.902 427.215 684.255 486.734 692.475 544.755Q697.334 578.08 703.943 611.103Q710.71 643.709 718.648 676.05L723.996 698.07C724.989 702.186 726.494 706.772 726.759 710.993C725.954 711.64 725.333 711.63 724.33 711.545C720.903 711.255 717.051 709.398 713.918 708.083C685.974 696.354 661.994 674.74 639.361 655.079C634.977 651.271 630.452 645.405 625.69 642.375C625.568 642.331 625.446 642.29 625.324 642.244C620.739 640.499 615.796 634.33 612.115 631.023C608.089 627.405 577.255 600.066 574.514 599.481C569.787 598.471 565.487 602.471 560.493 601.194C559.613 601.779 558.659 602.269 558.131 603.216C566.989 610.947 576.667 617.835 585.817 625.241C588.063 627.058 589.788 629.254 592.019 631.103C597.757 635.857 606.3 642.383 610.565 648.339L610.425 649.134C619.116 658.77 628.299 667.892 636.763 677.759C648.506 691.45 659.458 705.969 671.684 719.237C675.15 722.999 679.004 726.467 682.909 729.765C684.627 731.215 686.899 732.514 688.352 734.204C688.92 734.865 689.141 735.535 689.336 736.38L689.078 737.378C685.019 739.157 665.512 732.075 660.456 730.099C640.529 722.313 622.538 711.595 605.631 698.522Q598.057 692.713 590.769 686.549C581.983 679.035 557.826 656.103 549.094 653.146C548.731 654.209 548.931 654.642 549.41 655.612C552.005 660.875 564.224 673.214 568.903 678.173C597.769 708.772 631.87 736.363 652.488 773.655C654.834 777.897 659.105 784.291 659.078 789.118L658.504 789.752C653.173 787.339 648.165 783.148 643.158 780.058C625.726 769.304 609.273 757.743 593.13 745.122C583.897 737.903 575.007 730.108 565.658 723.071C570.596 732.577 578.504 739.826 585.52 747.773C603.211 767.812 619.534 790.178 626.824 816.244C627.937 820.224 630.442 829.172 629.286 833.135C629.027 834.023 629.188 833.695 628.42 834.336C628.142 834.235 627.843 834.179 627.586 834.033C626.377 833.347 620.241 823.775 618.634 821.734C614.726 816.77 610.432 811.912 606.026 807.386C594.312 795.353 580.853 785.37 567.939 774.713C554.937 763.982 542.401 752.301 531.736 739.217C520.121 724.969 510.823 709.094 500.515 693.913C496.68 688.267 492.716 681.661 487.971 676.738L487.159 676.663C477.892 664.476 468.343 653.426 457.853 642.234C451.438 635.389 436.419 620.962 432.301 613.915L431.151 613.407L430.613 613.71C429.631 614.253 428.441 615.144 427.277 614.885C423.985 614.152 419.763 611.396 416.317 612.466C417.115 615.089 420.28 617.801 421.966 620.067C429.413 630.075 477.55 681.527 477.39 687.361C481.507 694.889 487.051 701.822 491.393 709.293C502.769 728.867 511.91 749.555 523.734 768.903C525.61 771.972 538.207 789.894 538.14 791.941C535.901 793.393 530.632 789.096 528.39 787.727C501.772 771.463 477.838 749.206 457.178 725.941C454.356 722.764 443.756 709.092 440.305 708.792C439.458 710.55 440.633 713.175 441.37 714.921C444.449 722.222 450.214 729.804 454.235 736.823C470.33 764.914 486.838 796.539 485.465 829.815C485.327 833.161 485.605 841.273 483.139 843.538L482.613 843.351C480.222 839.548 478.888 834.892 476.984 830.811C473.842 824.074 469.653 817.529 465.289 811.509C454.112 796.088 440.84 782.976 428.723 768.386C409.84 745.648 388.284 710.324 378.371 682.335C375.663 674.688 373.958 666.862 372.251 658.951C372.103 658.792 371.949 658.639 371.808 658.474C369.449 655.737 369.272 644.802 367.252 640.919L364.966 643.549L365.109 642.801L364.562 643.913L363.972 643.953C362.249 644.085 360.28 644.158 358.973 645.461C357.983 646.449 357.879 647.821 358.022 649.135C358.598 654.452 361.52 659.667 360.829 665.091C361.302 668.478 362.42 672.058 363.298 675.372C370.362 702.019 385.284 725.055 396.356 750.012C406.029 771.815 412.685 793.631 412.589 817.675C412.573 821.511 412.76 827.213 411.236 830.779C410.894 831.579 410.886 831.674 410.047 831.972C409.253 831.351 408.821 830.766 408.334 829.877C406.526 826.572 405.417 822.845 403.846 819.418C401.597 814.514 398.722 809.451 396.037 804.757C392.481 798.539 387.921 792.667 383.839 786.776Q373.961 772.588 364.791 757.932C359.996 750.162 355.26 737.618 349.254 731.52C349.143 731.408 349.03 731.299 348.918 731.188C350.369 738.051 352.857 744.772 355.017 751.44C361.211 770.562 366.084 789.678 363.227 809.97C362.391 815.908 358.653 830.674 353.881 834.261L353.184 833.976C350.388 828.798 350.233 818.742 348.974 812.629C347.884 807.336 346.2 802.16 344.227 797.135C336.436 777.288 325.984 758.565 318.029 738.746C308.425 714.82 303.444 687.396 302.473 661.677C301.904 646.581 302.507 631.49 301.835 616.389L301.68 615.857C300.899 613.085 301.74 606.938 299.006 605.62C297.89 605.082 296.234 605.118 295.031 605.061C293.498 604.988 292.781 604.758 291.462 604.067C290.81 603.726 290.137 603.418 289.479 603.086C288.257 606.626 288.915 613.865 288.37 618.003C287.943 634.906 286.27 651.945 287.129 668.843C289.074 707.103 300.87 742.354 285.897 780.033C284.188 784.333 282.15 790.652 278.899 793.921L277.921 794.223C277.284 793.607 277.227 793.707 277.033 792.763C276.485 790.104 276.561 787.259 276.168 784.555C275.412 779.343 274.207 774.181 273.026 769.052C270.804 759.394 267.757 750.06 265.004 740.554Q260.172 723.72 256.385 706.621C255.146 700.882 250.309 668.153 249.257 666.382C246.581 668.867 246.823 679.31 246.649 682.946C245.528 706.266 242.54 729.866 232.143 751.073C230.825 753.761 228.555 759.093 225.641 760.19L225.062 759.867C224.162 755.554 225.451 748.67 225.341 744.002Q224.857 729.098 222.888 714.317C221.027 699.387 217.968 684.637 215.872 669.747Q214.587 660.871 213.881 651.93Q213.175 642.989 213.05 634.021Q212.926 625.054 213.383 616.097Q213.84 607.14 214.878 598.231C219.043 562.72 233.225 528.992 249.245 497.357C258.591 478.902 268.584 460.862 276.559 441.74Q286.681 417.545 294.813 392.612Q302.946 367.678 309.037 342.169C312.321 328.324 313.947 314.062 317.526 300.32C319.885 291.261 324.993 283.632 328.183 274.943C331.45 266.045 331.712 256.613 333.191 247.356C330.361 245.949 328.491 244.856 327.408 241.727C325.657 236.67 327.388 229.873 329.755 225.225C330.865 223.046 332.228 221.379 334.008 219.73C329.041 219.096 318.66 220.266 315.443 216.014C314.366 214.591 314.234 212.757 314.507 211.049C316.392 199.265 335.572 180.649 335.791 171.246C335.842 169.031 334.385 167.014 333.188 165.265C331.72 163.12 330.048 161.137 329.03 158.722Z"/>
	<path fill="#237A81" d="M349.897 597.878C335.545 572.271 331.381 545.076 335.06 516.106C336.01 508.624 337.122 501.298 339.185 494.018C344.887 473.902 359.376 448.611 371.528 431.496C375.357 426.103 379.588 421.056 383.555 415.777C386.649 411.659 389.313 407.137 392.586 403.171C393.816 409.121 393.75 415.746 395.626 421.468C397.717 427.846 403.232 434.271 406.918 439.957Q413.575 450.32 420.05 460.798C429.739 476.475 438.317 492.879 449.457 507.625C455.255 515.298 461.709 523.317 468.32 530.326C484.091 547.046 500.384 559.888 518.324 573.893L569.846 613.725Q584.095 624.887 597.546 637C601.69 640.771 605.617 645.487 609.981 648.886C610.115 648.99 610.277 649.052 610.425 649.134C619.116 658.77 628.299 667.892 636.763 677.759C648.506 691.45 659.458 705.969 671.684 719.237C675.15 722.999 679.004 726.467 682.909 729.765C684.627 731.215 686.899 732.514 688.352 734.204C688.92 734.865 689.141 735.535 689.336 736.38L689.078 737.378C685.019 739.157 665.512 732.075 660.456 730.099C640.529 722.313 622.538 711.595 605.631 698.522Q598.057 692.713 590.769 686.549C581.983 679.035 557.826 656.103 549.094 653.146C548.731 654.209 548.931 654.642 549.41 655.612C552.005 660.875 564.224 673.214 568.903 678.173C597.769 708.772 631.87 736.363 652.488 773.655C654.834 777.897 659.105 784.291 659.078 789.118L658.504 789.752C653.173 787.339 648.165 783.148 643.158 780.058C625.726 769.304 609.273 757.743 593.13 745.122C583.897 737.903 575.007 730.108 565.658 723.071C570.596 732.577 578.504 739.826 585.52 747.773C603.211 767.812 619.534 790.178 626.824 816.244C627.937 820.224 630.442 829.172 629.286 833.135C629.027 834.023 629.188 833.695 628.42 834.336C628.142 834.235 627.843 834.179 627.586 834.033C626.377 833.347 620.241 823.775 618.634 821.734C614.726 816.77 610.432 811.912 606.026 807.386C594.312 795.353 580.853 785.37 567.939 774.713C554.937 763.982 542.401 752.301 531.736 739.217C520.121 724.969 510.823 709.094 500.515 693.913C496.68 688.267 492.716 681.661 487.971 676.738L487.159 676.663C477.892 664.476 468.343 653.426 457.853 642.234C451.438 635.389 436.419 620.962 432.301 613.915L431.151 613.407L430.613 613.71C429.631 614.253 428.441 615.144 427.277 614.885C423.985 614.152 419.763 611.396 416.317 612.466C417.115 615.089 420.28 617.801 421.966 620.067C429.413 630.075 477.55 681.527 477.39 687.361C481.507 694.889 487.051 701.822 491.393 709.293C502.769 728.867 511.91 749.555 523.734 768.903C525.61 771.972 538.207 789.894 538.14 791.941C535.901 793.393 530.632 789.096 528.39 787.727C501.772 771.463 477.838 749.206 457.178 725.941C454.356 722.764 443.756 709.092 440.305 708.792C439.458 710.55 440.633 713.175 441.37 714.921C444.449 722.222 450.214 729.804 454.235 736.823C470.33 764.914 486.838 796.539 485.465 829.815C485.327 833.161 485.605 841.273 483.139 843.538L482.613 843.351C480.222 839.548 478.888 834.892 476.984 830.811C473.842 824.074 469.653 817.529 465.289 811.509C454.112 796.088 440.84 782.976 428.723 768.386C409.84 745.648 388.284 710.324 378.371 682.335C375.663 674.688 373.958 666.862 372.251 658.951C372.103 658.792 371.949 658.639 371.808 658.474C369.449 655.737 369.272 644.802 367.252 640.919L364.966 643.549L365.109 642.801L364.562 643.913L363.972 643.953C362.249 644.085 360.28 644.158 358.973 645.461C357.983 646.449 357.879 647.821 358.022 649.135C358.598 654.452 361.52 659.667 360.829 665.091C357.6 654.461 356.184 643.232 353.011 632.539C350.502 624.08 346.383 616.178 342.393 608.347C342.437 608.193 342.472 608.038 342.523 607.886C343.731 604.329 346.529 599.671 349.897 597.878Z"/>
	<defs>
		<linearGradient id="gradient_1" gradientUnits="userSpaceOnUse" x1="336.26483" y1="525.79187" x2="447.88168" y2="570.24603">
			<stop offset="0" stop-color="#F9B95C"/>
			<stop offset="1" stop-color="#F9E5A5"/>
		</linearGradient>
	</defs>
	<path fill="url(#gradient_1)" d="M349.361 492.099C351.602 486.803 353.501 481.561 354.96 475.992C359.543 486.143 364.505 496.092 369.228 506.175C372.38 512.906 375.228 519.784 378.483 526.466C391.976 554.17 407.317 580.587 426.043 605.12C441.562 625.452 460.705 642.836 477.149 662.43C480.698 666.66 485.664 671.74 487.971 676.738L487.159 676.663C477.892 664.476 468.343 653.426 457.853 642.234C451.438 635.389 436.419 620.962 432.301 613.915L431.151 613.407L430.613 613.71C429.631 614.253 428.441 615.144 427.277 614.885C423.985 614.152 419.763 611.396 416.317 612.466C417.115 615.089 420.28 617.801 421.966 620.067C429.413 630.075 477.55 681.527 477.39 687.361C476.182 686.552 460.006 665.306 457.248 662.146C440.939 643.465 423.959 625.474 409.236 605.451C391.501 581.331 376.977 554.027 364.508 526.866C359.236 515.382 354.511 503.641 349.361 492.099Z"/>
	<path fill="#F9C374" d="M349.897 597.878C353.548 604.184 357.327 610.536 360.32 617.188C366.263 630.394 369.404 644.818 372.251 658.951C372.103 658.792 371.949 658.639 371.808 658.474C369.449 655.737 369.272 644.802 367.252 640.919L364.966 643.549L365.109 642.801L364.562 643.913L363.972 643.953C362.249 644.085 360.28 644.158 358.973 645.461C357.983 646.449 357.879 647.821 358.022 649.135C358.598 654.452 361.52 659.667 360.829 665.091C357.6 654.461 356.184 643.232 353.011 632.539C350.502 624.08 346.383 616.178 342.393 608.347C342.437 608.193 342.472 608.038 342.523 607.886C343.731 604.329 346.529 599.671 349.897 597.878Z"/>
	<path fill="#F3A53F" d="M377.967 437.157C383.372 444.939 388.88 453.458 392.77 462.102C395.051 467.169 396.763 472.596 398.671 477.822C401.752 486.26 404.923 494.756 408.393 503.041C418.378 526.885 433.653 548.808 450.877 567.958C447.42 569.725 444.669 571.215 442.666 574.694C421.508 553.667 406.799 529.653 395.515 502.189C390.897 490.951 386.831 479.471 381.965 468.331C378.841 461.179 374.041 455.027 370.828 448.033C372.935 444.21 375.351 440.647 377.967 437.157Z"/>
	<path fill="#F9C374" d="M450.877 567.958C459.522 575.896 468.176 583.891 477.682 590.805C484.238 595.574 494.067 600.814 499.641 606.14C503.933 609.058 509.179 611.935 512.585 615.869C508.052 614.848 503.243 613.62 499.058 611.566C496.132 611.129 492.508 609.217 489.778 607.966C472.429 600.015 456.06 588.24 442.666 574.694C444.669 571.215 447.42 569.725 450.877 567.958Z"/>
	<defs>
		<linearGradient id="gradient_2" gradientUnits="userSpaceOnUse" x1="333.28268" y1="476.54071" x2="580.39325" y2="582.41425">
			<stop offset="0" stop-color="#F49E35"/>
			<stop offset="1" stop-color="#FCE6A6"/>
		</linearGradient>
	</defs>
	<path fill="url(#gradient_2)" d="M384.068 394.16C382.105 388.18 377.984 375.052 379.015 369.302C381.357 370.865 399.535 392.407 401.853 395.895C402.851 397.398 403.642 398.796 403.947 400.6C404.575 404.3 404.013 408.17 404.837 411.859C406.683 420.118 420.681 438.72 425.517 447.028C433.092 460.042 440.078 473.574 448.239 486.236C464.601 511.62 486.598 532.481 510.578 550.628C520.648 558.249 531.069 565.399 541.245 572.876Q573.604 596.218 603.785 622.315C611.126 628.739 619.013 635.258 625.69 642.375C625.568 642.331 625.446 642.29 625.324 642.244C620.739 640.499 615.796 634.33 612.115 631.023C608.089 627.405 577.255 600.066 574.514 599.481C569.787 598.471 565.487 602.471 560.493 601.194C559.613 601.779 558.659 602.269 558.131 603.216C566.989 610.947 576.667 617.835 585.817 625.241C588.063 627.058 589.788 629.254 592.019 631.103C597.757 635.857 606.3 642.383 610.565 648.339L610.425 649.134C610.277 649.052 610.115 648.99 609.981 648.886C605.617 645.487 601.69 640.771 597.546 637Q584.095 624.887 569.846 613.725L518.324 573.893C500.384 559.888 484.091 547.046 468.32 530.326C461.709 523.317 455.255 515.298 449.457 507.625C438.317 492.879 429.739 476.475 420.05 460.798Q413.575 450.32 406.918 439.957C403.232 434.271 397.717 427.846 395.626 421.468C393.75 415.746 393.816 409.121 392.586 403.171C389.313 407.137 386.649 411.659 383.555 415.777C379.588 421.056 375.357 426.103 371.528 431.496C359.376 448.611 344.887 473.902 339.185 494.018C337.122 501.298 336.01 508.624 335.06 516.106C331.381 545.076 335.545 572.271 349.897 597.878C346.529 599.671 343.731 604.329 342.523 607.886C342.472 608.038 342.437 608.193 342.393 608.347C321.729 575.593 317.48 537.019 325.879 499.692C332.954 468.254 349.597 442.033 368.064 416.144C373.233 408.898 379.602 401.817 384.068 394.16Z"/>
	<path fill="#F9C374" d="M288.37 618.003C288.079 558.025 271.908 501.193 296.83 443.63C300.53 435.085 305.009 425.716 310.752 418.331C312.634 422.757 314.195 427.337 315.846 431.853C311.48 441.137 306.61 449.849 303.277 459.618C285.761 510.95 300.741 563.997 301.835 616.389L301.68 615.857C300.899 613.085 301.74 606.938 299.006 605.62C297.89 605.082 296.234 605.118 295.031 605.061C293.498 604.988 292.781 604.758 291.462 604.067C290.81 603.726 290.137 603.418 289.479 603.086C288.257 606.626 288.915 613.865 288.37 618.003Z"/>
	<path fill="#F3A53F" d="M387.748 341.351C389.566 345.116 392.371 348.702 394.72 352.173C410.736 375.845 430.567 390.512 447.6 411.799C456.985 423.528 460.982 434.258 467.999 447.059C487.036 481.786 520.052 505.152 557.635 516.11C557.142 518.233 556.616 520.318 555.97 522.403Q548.448 521.018 541.115 518.844C507.261 509.043 478.467 488.107 460.858 457.269C453.953 445.177 448.315 431.565 439.304 420.862C420.648 398.704 396.416 380.264 382.279 354.63C384.37 350.293 386.473 346.01 387.748 341.351Z"/>
	<path fill="#F3A53F" d="M418.319 169.867C419.62 172.389 418.17 205.324 417.855 210.223C417.563 214.756 415.783 219.049 416.7 223.596C418.721 233.611 426.379 242.244 431.805 250.658C436.334 257.682 440.167 264.984 442.357 273.091C444.5 281.025 445.051 289.358 444.893 297.545C444.487 318.606 437.973 338.447 428.166 356.949C425.641 361.713 422.66 366.28 419.961 370.953C416.529 368.455 413.698 365.438 410.915 362.255C423.678 340.663 432.755 323.563 433.256 297.597C433.927 262.782 416.64 252.676 395.032 230.144C399.881 220.655 405.326 210.765 408.602 200.606C411.943 190.245 413.543 179.808 418.319 169.867Z"/>
	<path fill="#F3A53F" d="M333.76 230.551C339.747 231.971 367.233 246.15 372.976 250.248C374.617 251.42 375.906 252.803 377.212 254.322C380.842 258.546 383.995 263.214 387.418 267.611C392.696 274.39 402.296 284.139 405.057 291.845C407.545 298.792 403.069 327.396 402.193 335.611C401.719 340.05 401.511 344.527 401.171 348.979C398.852 347.209 397.181 343.555 395.809 341.017C393.984 337.639 391.313 333.652 390.745 329.84C390.219 326.31 391.368 322.431 392.026 318.961C393.406 311.686 395.513 300.227 391.48 293.532C388.942 289.318 385.456 285.501 382.571 281.503C378.111 275.324 374.022 266.916 368.21 262.037C360.807 255.823 338.351 247.732 334.028 240.641C332.241 237.709 333.072 233.701 333.76 230.551Z"/>
	<path fill="#F3A53F" d="M346.38 266.165C348.162 268.542 348.492 274.22 348.892 277.141C350.668 290.105 350.934 303.258 352.42 316.263C354.39 333.507 357.553 350.481 359.097 367.8C353.666 378.182 344.614 390.052 337.641 399.513L335.13 403.018C334.135 396.816 333.386 390.751 333.534 384.451C337.249 379.081 345.306 369.659 346.491 363.448C347.457 358.379 344.994 343.751 344.269 337.931C342.601 324.537 340.524 310.188 341.153 296.692C341.633 286.378 343.871 276.148 346.38 266.165Z"/>
	<path fill="#F3A53F" d="M316.994 346.655C319.418 348.543 322.519 351.379 325.64 351.763C320.832 381.562 327.449 413.301 341.768 439.754C338.978 444.616 336.685 449.853 334.261 454.909C332.582 450.807 330.436 446.895 328.781 442.77C316.17 411.345 308.837 380.355 316.994 346.655Z"/>
	<path fill="#F3A53F" d="M368.813 276.335C371.557 278.913 373.604 283.825 375.705 287.048C377.338 289.552 379.22 291.829 381.149 294.107C383.776 325.672 388.012 328.486 371.329 357.515C370.1 359.639 368.65 361.678 367.3 363.73C366.599 357.936 365.118 352.175 364.051 346.433C366.598 340.469 370.737 334.79 372.184 328.418C373.597 322.194 370.694 303.659 370.046 296.293Q369.26 286.325 368.813 276.335Z"/>
	<path fill="#F3A53F" d="M360.131 380.771C361.894 382.267 367.003 400.599 368.214 404.353C365.356 408.648 361.887 412.681 358.459 416.525L357.867 416.799C356.3 414.961 352.533 399.886 351.418 396.616C354.707 391.479 357.671 386.367 360.131 380.771Z"/>
	<path fill="#F9C374" d="M316.994 346.655C319.26 336.613 321.593 326.906 326.251 317.652C328.032 329.017 327.664 340.446 325.64 351.763C322.519 351.379 319.418 348.543 316.994 346.655Z"/>
	<path fill="#F9C374" d="M557.635 516.11C565.163 517.726 572.596 519.751 580.115 521.408C585.442 522.582 591.232 523.225 596.336 525.108C582.408 526.502 569.625 524.986 555.97 522.403C556.616 520.318 557.142 518.233 557.635 516.11Z"/>
</svg>
